<svg width="133" height="66" viewBox="0 0 133 66" xmlns="http://www.w3.org/2000/svg" xmlns:xlink="http://www.w3.org/1999/xlink"><title>Page 1 Copy 3</title><defs><path id="a" d="M0 52.83v13.765h133.548V0H0v52.83h37.04V0H0v52.83z"></path><path id="c" d="M3.66 5.008V.668H.393v4.34H3.66z"></path></defs><g fill="none" fill-rule="evenodd"><path d="M29.912 27.511a9.16 9.16 0 0 0 .186-.272c.107-.164.311-.76.575-.716.486.081-.184.856-.264.992-.196.335-1.072 3.23-1.736 2.47-.232-.267.038-.604.207-.812.245-.306.444-.582.585-.955a.26.26 0 0 0-.028.052c.136-.284.303-.516.475-.759M.218 13.854c-.008.517.234 1.1.393 1.349.161.247.699.95.8 1.05.383.383.114.51-.008.708-.088.142-2.58 3.344-.022 5.519.408.349 1.019 1.226 1.09 1.597.07.37.159.649.21.833.05.183.331.98.422 1.229.089.25.376.923.478 1.29.103.369.382.804.425 1.17.044.365.265.737.603 1.175.339.438.37 1.044.836 1.308.466.264 1.267 1.027 1.557 1.222.29.195.927.47 1.57.918.643.446 1.3.534 1.068.11-.23-.425-2.095-1.185-2.245-1.798-.153-.61-.06-1.331-.052-1.512.009-.182.155-.78.155-.78l.157-.839s.23-1.138.997-.921c.764.217.706.214.882-1.047.175-1.26.222-1.389.614-1.724.24-.206.361-.392.414-.668.048-.276.24-1.266-1.832-2.3-1.678-.876-1.702-1.532-2.511-2.532-.81-1.002-1.337-.726-1.67-1.348-.333-.622-.31-1.366-1.578-2.007-.688-.35-1.18-.452-1.18-.452s-.388-.071-.574-.415c-.2-.375-.091-1.939-.075-2.3.016-.362.014-.847.051-1.147.064-.525.234-.782.596-1.293.257-.364.138-.747.356-1.156.219-.407.449-.501.449-.501s.38-.155.017 1.16c-.01.033-.018.067-.03.102-.42 1.43.064 2.3.288 2.312 0 0 .468-.105.45-2.234 0 0 .08-.561.473-.483 1.35.265 1.253-.725 1.272-.778.139-.385.081-.404.424-.816.404-.487 1.077-1.116 2.435-1.322.358-.053.908-.474.908-.474s1.369-.418 1.7-1.762c.258-1.056.115-1.265.126-1.506.01-.241-.517-.447-.95-.104-.432.343-.682.574-.926.681-.244.11-.332.263-.542.097a.323.323 0 0 1 .026-.543c.183-.112.304-.106.5-.52.199-.414.376-.405.734-.39.356.018.42-.04.78-.084.36-.045 1.19.056 1.39-.42.201-.474-.55-.158.336-.831.887-.673.188-.66.147-.622-.04.038-8.118 2.317-11.697 11.582 0 0-.209.496-.237 2.217M15.57.49s-.995-.116-.672.836c.162.478-.232.45-.448.532-.215.083-.43.165-.528.284-.096.118-.315.291-.417.532-.102.242-.559 1.225.792.827 0 0 .71-.259 1.162-.49.328-.168 1.405-.987 1.965-1.227.35-.151 1.334-.912-.255-1.088C15.696.532 15.57.489 15.57.489m8.495 9.441c0 .029-.028.326.061.258.112-.084.173-.058.19-.17.014-.112.145-.065.132-.202-.027-.292.082.024.092-.139 0 0 .022-.17-.152-.407-.171-.237-.113-.292-.279-.439-.164-.146-.593-.361-.588-.462a.346.346 0 0 1 .162-.26c.082-.045.78-.084.953.056.176.14.516 1.187 1.043 1.868.478.617 1.44-1.681 1.528-1.1.088.58.393.733.368 1.242-.021.51.652 1.4-.035 1.487 0 0-1.124-.34-1.546.16-.422.5-1.6.098-2.415-.805-.178-.197-.368-.55-1.22-.461 0 0-3.093.469-3.675 1.734-.136.293-.616.832-.904.943 0 0-.68.257-.82.83a.758.758 0 0 0-.023.171c-.032.69.052.782-.242 1.548-.07.18.008 1.63.778 3.326 0 0 .126 1.077.445 1.176 1.09.336 2.749.992 3.762 0 0 0 .662-.534 1.027-.01 0 0 .635.537 1.161.15.756-.558.788.036.619.502-.166.466-.974.221-.707 1.449.1.464.968.663.875 1.342 0 0-.078 1.062-.508 2.819-.232.954-.045 2.407.072 2.715 0 0 .217.518.086.915-.132.4-.068 1.112-.068 1.112s-.087 2.271 3.752-1.997c0 0 .849-.917 1.172-1.389.425-.619 2.495-3.808 2.756-5.22 0 0 .322-2.307 1.083-3.136 2.567-2.796.369-2.82.18-2.763-.43.134-.938 1.5-1.959-.645-1.02-2.145-.902-1.624-1.113-1.979 0 0-1.861-1.953-.014-.984 1.846.97 1.293 1.292 1.857 1.975 0 0 .811.975.96.664.597-1.25.602-2.16-.345-3.101 0 0-2.586-1.966-1.39-2.027.67-.035 1.941 1.07 2.004 1.13 0 0 .278.29.912.976.251.273.414.59.414.59a7.1 7.1 0 0 1 .216.284c.049.118.588.769.124-.963 0 0-2.532-10.858-12.482-12.704 0 0-1.595-.29 1.195 2.32 0 0 .23.229.377.756s-.843-.318-1.24-.395c-.395-.076-1.777.314-1.534 1.25.243.933.711.667 1.123.397.41-.27.69-.14.676.147-.013.288-.02.46-.49.786-.472.324-.701.37-1.125.928-.425.557-.884.653-.918 1.402-.034.75.045 1.505-.564 1.13-.61-.375-.473-.887-1.001-.566-.529.32-.892-.447-.722.832.171 1.279.626 1.3 1.133 1.438.506.14 1.136.11 1.43-.107.294-.218.3-.332.657-.663.356-.33.265-.736.9-.882 0 0 .442-.107.473-.107.03.003.19-.018.364.142.175.161.214.102.426.317.21.212.633.22.568.553l-.027.264zM9.098 52.666s-.965.508.05 1.049c0 0 14.77.754 15.049-.212 0 0 .11-.64-.753-.66 0 0-12.082-.261-14.346-.177m-.014 1.97s-.963.508.05 1.048c0 0 14.772.755 15.05-.21 0 0 .11-.641-.753-.659 0 0-12.08-.264-14.347-.18m-.012 1.972s-.965.508.049 1.049c0 0 14.772.754 15.048-.213 0 0 .11-.64-.753-.657 0 0-12.08-.265-14.344-.179m-.015 1.97s-.964.51.05 1.048c0 0 14.773.755 15.049-.211 0 0 .109-.64-.752-.659 0 0-12.08-.263-14.347-.178m6.847 6.944c.43.02 1.265-.088 1.744-.48l1.682-.102.108-.676 1.3-1.636s2.123-1.313 2.104-1.685c0 0-3.403.033-6.874-.074-3.471.008-6.872-.107-6.872-.107-.031.37 2.055 1.744 2.055 1.744l1.257 1.671.088.68 1.676.147c.469.406 1.301.526 1.732.518" fill="#3B3938"></path><g transform="translate(-1 -2.639)"><mask id="b" fill="#fff"><use xlink:href="#a"></use></mask><path d="M.038 19.124a19.265 19.265 0 0 0 3.173 11.852l.015.02.016.023c.407.492 1.444 2.193 1.936 3.015 3.81 6.285 3.804 12.892 3.797 16.452-.003 1.555.007 2.323.232 2.755.22.421.627 1.209 8.165 1.154 3.59-.027 7.127-.236 7.164-.238a.51.51 0 0 0 .473-.543.51.51 0 0 0-.534-.48c-6.354.383-13.637.343-14.379-.386-.113-.253-.111-1.272-.109-2.26.005-3.577.003-10.142-3.684-16.528l.007-.005-.109-.183a42.194 42.194 0 0 0-.798-1.317c-.639-1.044-1.093-1.728-1.358-2.056a18.255 18.255 0 0 1-3-11.208c.622-9.76 8.965-17.19 18.6-16.563 9.635.63 16.97 9.082 16.349 18.844A17.766 17.766 0 0 1 29.88 33.83a17.556 17.556 0 0 1-3.685 2.448.516.516 0 0 0-.232.685.505.505 0 0 0 .676.234 18.505 18.505 0 0 0 3.895-2.588A18.77 18.77 0 0 0 37 21.537c.658-10.325-7.1-19.264-17.291-19.93C9.518.942.694 8.8.038 19.124" fill="#3B3938" mask="url(#b)"></path></g><path d="M15.534 38.036c.02 1.207.776 1.707 1.664 1.707.636 0 1.03-.113 1.352-.255l.162.644c-.313.143-.858.316-1.634.316-1.494 0-2.402-1.012-2.402-2.494 0-1.492.878-2.667 2.3-2.667 1.595 0 2.008 1.42 2.008 2.33 0 .184-.01.317-.03.42h-3.42zm2.592-.644c.01-.572-.232-1.46-1.22-1.46-.908 0-1.291.837-1.362 1.46h2.582zm2.078-.654c0-.52-.01-.93-.04-1.339h.787l.05.808h.02c.242-.46.807-.92 1.614-.92.677 0 1.725.409 1.725 2.105v2.954h-.887v-2.851c0-.798-.293-1.471-1.13-1.471-.575 0-1.03.418-1.19.92-.04.11-.06.274-.06.418v2.984h-.889v-3.608zm9.897 2.882c0 1.145-.232 1.83-.696 2.27-.484.44-1.17.592-1.786.592-.586 0-1.23-.142-1.624-.409l.222-.695c.323.215.827.4 1.433.4.907 0 1.574-.481 1.574-1.739v-.541h-.02c-.263.46-.798.827-1.554.827-1.211 0-2.078-1.043-2.078-2.421 0-1.677 1.079-2.617 2.209-2.617.848 0 1.301.439 1.523.859h.02l.03-.747h.788c-.031.348-.04.757-.04 1.35v2.872zm-.887-2.279c0-.142-.01-.276-.05-.397-.163-.533-.587-.962-1.242-.962-.848 0-1.453.725-1.453 1.88 0 .961.495 1.779 1.442 1.779.556 0 1.05-.348 1.231-.93a1.51 1.51 0 0 0 .072-.481v-.889zm2.834-2.779c-.323 0-.535-.255-.535-.553 0-.317.222-.562.555-.562.323 0 .544.245.544.562a.536.536 0 0 1-.554.553h-.01zm-.424 5.784h.887V35.4h-.887v4.947zm2.482-3.608c0-.52-.01-.93-.04-1.339h.786l.05.808h.02c.243-.46.808-.92 1.615-.92.676 0 1.725.409 1.725 2.105v2.954h-.887v-2.851c0-.798-.293-1.471-1.13-1.471-.576 0-1.03.418-1.19.92-.04.11-.062.274-.062.418v2.984h-.887v-3.608zm6.224 1.298c.02 1.207.776 1.707 1.665 1.707.635 0 1.028-.113 1.35-.255l.163.644c-.313.143-.858.316-1.634.316-1.494 0-2.401-1.012-2.401-2.494 0-1.492.878-2.667 2.3-2.667 1.594 0 2.007 1.42 2.007 2.33 0 .184-.01.317-.03.42h-3.42zm2.592-.644c.01-.572-.232-1.46-1.22-1.46-.909 0-1.291.837-1.362 1.46h2.582zm2.583.644c.02 1.207.777 1.707 1.665 1.707.636 0 1.029-.113 1.351-.255l.162.644c-.313.143-.857.316-1.635.316-1.492 0-2.4-1.012-2.4-2.494 0-1.492.877-2.667 2.3-2.667 1.594 0 2.007 1.42 2.007 2.33 0 .184-.01.317-.03.42h-3.42zm2.593-.644c.01-.572-.232-1.46-1.22-1.46-.91 0-1.292.837-1.362 1.46h2.582zm2.078-.449c0-.583-.01-1.084-.04-1.543h.777l.04.97h.03c.222-.664.767-1.083 1.362-1.083.09 0 .161.01.242.02v.849a2.387 2.387 0 0 0-.302-.021c-.626 0-1.07.48-1.19 1.145-.02.132-.031.276-.031.42v2.646h-.888v-3.403zm3.299 2.484c.272.163.736.348 1.18.348.635 0 .938-.318.938-.737 0-.429-.252-.654-.898-.9-.887-.326-1.302-.818-1.302-1.4 0-.797.646-1.451 1.686-1.451.494 0 .928.133 1.19.306l-.212.645a1.986 1.986 0 0 0-.999-.286c-.523 0-.807.305-.807.674 0 .408.284.592.918.847.838.317 1.282.747 1.282 1.483 0 .88-.676 1.492-1.816 1.492-.535 0-1.03-.143-1.372-.347l.212-.674zm6.85-4.027l.655 2.504c.132.551.263 1.074.353 1.584h.031c.11-.501.272-1.033.433-1.575l.797-2.514h.747l.757 2.474c.181.582.323 1.114.434 1.615h.03c.08-.501.211-1.022.373-1.605l.696-2.484h.878l-1.574 4.948h-.807l-.747-2.362a17.314 17.314 0 0 1-.433-1.635h-.021c-.12.593-.272 1.114-.444 1.646l-.786 2.35h-.807L59.417 35.4h.908zm7.616-.838c-.323 0-.535-.255-.535-.553 0-.317.222-.562.555-.562.323 0 .545.245.545.562a.537.537 0 0 1-.554.553h-.01zm-.423 5.784h.888V35.4h-.888v4.947zm3.551-6.132V35.4h1.271v.685h-1.271v2.657c0 .614.17.962.666.962.241 0 .384-.02.514-.062l.04.684a2.36 2.36 0 0 1-.786.123c-.414 0-.747-.143-.959-.378-.242-.275-.342-.715-.342-1.298v-2.688h-.757V35.4h.757v-.91l.867-.275zm2.39-1.124h.888v3.086h.02c.141-.255.363-.49.636-.633.262-.164.575-.256.907-.256.656 0 1.705.409 1.705 2.116v2.943h-.887v-2.852c0-.796-.293-1.461-1.13-1.461-.575 0-1.02.409-1.192.899-.05.123-.059.255-.059.43v2.984h-.888v-7.257zm7.708 7.368c-1.312 0-2.341-.98-2.341-2.545 0-1.656 1.079-2.626 2.421-2.626 1.402 0 2.351 1.032 2.351 2.534 0 1.84-1.262 2.637-2.422 2.637h-.009zm.04-.675c.847 0 1.483-.806 1.483-1.931 0-.837-.414-1.89-1.463-1.89-1.039 0-1.493.981-1.493 1.92 0 1.084.605 1.901 1.464 1.901h.008zm7.717-.796c0 .52.01.971.042 1.36h-.787l-.051-.81h-.022c-.221.4-.745.921-1.613.921-.766 0-1.684-.439-1.684-2.166V35.4h.888v2.728c0 .94.292 1.585 1.089 1.585.595 0 1.008-.42 1.17-.828.05-.123.08-.286.08-.46V35.4h.888v3.587zm2.664-4.773V35.4h1.27v.685h-1.27v2.657c0 .614.171.962.666.962.241 0 .383-.02.513-.062l.041.684c-.17.062-.444.123-.786.123-.415 0-.747-.143-.959-.378-.242-.275-.343-.715-.343-1.298v-2.688h-.756V35.4h.756v-.91l.868-.275zm4.65-1.124h.889v3.097h.02c.313-.552.878-.9 1.665-.9 1.21 0 2.057 1.022 2.057 2.515 0 1.778-1.11 2.656-2.198 2.656-.707 0-1.262-.275-1.636-.93h-.02l-.05.818h-.767c.03-.337.04-.839.04-1.277v-5.98zm.889 5.273c0 .113.01.226.03.328.171.623.696 1.052 1.33 1.052.94 0 1.485-.766 1.485-1.9 0-1.003-.505-1.85-1.454-1.85-.605 0-1.169.428-1.34 1.103a1.392 1.392 0 0 0-.051.377v.89zm6.96 2.095c-1.312 0-2.34-.98-2.34-2.545 0-1.656 1.079-2.626 2.421-2.626 1.402 0 2.35 1.032 2.35 2.534 0 1.84-1.261 2.637-2.421 2.637h-.01zm.04-.675c.847 0 1.484-.806 1.484-1.931 0-.837-.415-1.89-1.463-1.89-1.04 0-1.494.981-1.494 1.92 0 1.084.606 1.901 1.463 1.901h.01zm3.631-2.84c0-.583-.01-1.084-.04-1.543h.777l.04.97h.03c.223-.664.767-1.083 1.362-1.083.092 0 .162.01.243.02v.849c-.091-.01-.182-.021-.303-.021-.625 0-1.07.48-1.19 1.145-.02.132-.03.276-.03.42v2.646h-.889v-3.403zm7.536-3.853v5.98c0 .437.01.939.04 1.276h-.796l-.04-.858h-.02c-.273.552-.858.97-1.655.97-1.18 0-2.1-1.011-2.1-2.514-.008-1.656 1.01-2.657 2.19-2.657.757 0 1.262.358 1.474.746h.02v-2.944h.887zm-.887 4.322c0-.122-.01-.265-.041-.387-.13-.563-.615-1.033-1.28-1.033-.92 0-1.463.818-1.463 1.9 0 1.013.493 1.841 1.442 1.841.595 0 1.14-.41 1.301-1.083.031-.113.041-.236.041-.378v-.86zm2.986.624c.02 1.207.776 1.707 1.664 1.707.636 0 1.03-.113 1.352-.255l.161.644c-.313.143-.857.316-1.633.316-1.495 0-2.402-1.012-2.402-2.494 0-1.492.878-2.667 2.3-2.667 1.594 0 2.008 1.42 2.008 2.33 0 .184-.01.317-.03.42h-3.42zm2.591-.644c.012-.572-.23-1.46-1.218-1.46-.91 0-1.293.837-1.364 1.46h2.582zm2.079-.449c0-.583-.01-1.084-.04-1.543h.777l.04.97h.03c.223-.664.767-1.083 1.363-1.083.09 0 .161.01.241.02v.849a2.402 2.402 0 0 0-.302-.021c-.624 0-1.07.48-1.191 1.145-.02.132-.03.276-.03.42v2.646h-.888v-3.403zm3.299 2.484c.273.163.737.348 1.18.348.636 0 .939-.318.939-.737 0-.429-.253-.654-.897-.9-.889-.326-1.302-.818-1.302-1.4 0-.797.645-1.451 1.685-1.451.494 0 .928.133 1.19.306l-.212.645a1.984 1.984 0 0 0-1-.286c-.523 0-.806.305-.806.674 0 .408.283.592.918.847.838.317 1.281.747 1.281 1.483 0 .88-.675 1.492-1.816 1.492-.534 0-1.028-.143-1.37-.347l.21-.674zM23.383 43.765c-.323 0-.535-.255-.535-.552 0-.316.222-.562.555-.562.322 0 .545.246.545.562a.536.536 0 0 1-.556.552h-.01zm-.424 5.784h.887v-4.947h-.887v4.947zm2.481-3.607c0-.521-.01-.93-.04-1.34h.787l.05.809h.02c.243-.46.807-.92 1.615-.92.675 0 1.725.408 1.725 2.105v2.953h-.888V46.7c0-.798-.292-1.473-1.13-1.473-.575 0-1.029.42-1.19.92-.04.113-.061.277-.061.419v2.984h-.888v-3.607zm9.897 2.882c0 1.144-.232 1.83-.696 2.27-.484.44-1.17.592-1.785.592-.586 0-1.231-.143-1.624-.41l.22-.693c.323.214.828.398 1.434.398.908 0 1.574-.48 1.574-1.738v-.54h-.02c-.263.458-.797.826-1.554.826-1.21 0-2.078-1.041-2.078-2.423 0-1.675 1.079-2.615 2.209-2.615.848 0 1.301.44 1.524.858h.02l.03-.746h.786a15.8 15.8 0 0 0-.04 1.35v2.871zm-.888-2.278c0-.144-.01-.277-.05-.4-.162-.53-.585-.96-1.241-.96-.847 0-1.452.725-1.452 1.88 0 .96.494 1.778 1.442 1.778.555 0 1.05-.348 1.23-.929.051-.144.071-.317.071-.48v-.89zm2.976.694c.02 1.206.777 1.706 1.665 1.706.635 0 1.029-.111 1.351-.255l.162.644c-.313.144-.858.317-1.634.317-1.493 0-2.402-1.012-2.402-2.494 0-1.492.878-2.667 2.3-2.667 1.594 0 2.008 1.42 2.008 2.33 0 .184-.01.317-.03.42h-3.42zm2.592-.645c.01-.571-.231-1.46-1.22-1.46-.908 0-1.291.838-1.362 1.46h2.582zm.203-4.128l-1.231 1.461h-.626l.888-1.461h.969zm1.877 3.475c0-.521-.01-.93-.041-1.34h.787l.05.809h.02c.243-.46.808-.92 1.615-.92.675 0 1.725.408 1.725 2.105v2.953h-.888V46.7c0-.798-.292-1.473-1.13-1.473-.575 0-1.029.42-1.19.92-.04.113-.061.277-.061.419v2.984h-.887v-3.607zm6.143-2.177c-.323 0-.535-.255-.535-.552 0-.316.222-.562.555-.562.322 0 .544.246.544.562a.536.536 0 0 1-.555.552h-.01zm-.424 5.784h.887v-4.947h-.887v4.947zm2.986-2.309c.02 1.206.777 1.706 1.665 1.706.635 0 1.029-.111 1.352-.255l.161.644c-.313.144-.857.317-1.634.317-1.493 0-2.4-1.012-2.4-2.494 0-1.492.876-2.667 2.299-2.667 1.593 0 2.007 1.42 2.007 2.33 0 .184-.01.317-.03.42h-3.42zm2.593-.645c.01-.571-.232-1.46-1.22-1.46-.908 0-1.292.838-1.363 1.46h2.583zm6.164 1.595c0 .522.01.971.04 1.36h-.787l-.05-.807h-.02c-.223.398-.747.92-1.615.92-.766 0-1.684-.44-1.684-2.167v-2.893h.888v2.73c0 .94.292 1.583 1.089 1.583.595 0 1.01-.42 1.17-.828.05-.122.08-.286.08-.46v-3.025h.889v3.588zm1.593-2.044c0-.582-.01-1.083-.04-1.543h.777l.04.97h.03c.222-.663.768-1.082 1.363-1.082.09 0 .161.01.24.02v.848a2.49 2.49 0 0 0-.3-.02c-.627 0-1.07.481-1.192 1.145a2.85 2.85 0 0 0-.03.419v2.647h-.888v-3.404zm3.298 2.484c.273.164.738.347 1.181.347.636 0 .94-.317.94-.735 0-.43-.254-.654-.9-.9-.887-.326-1.301-.817-1.301-1.4 0-.797.647-1.451 1.686-1.451.493 0 .926.132 1.19.306l-.212.644a1.983 1.983 0 0 0-1-.286c-.523 0-.806.307-.806.674 0 .41.283.593.918.85.836.316 1.281.744 1.281 1.48 0 .88-.676 1.493-1.816 1.493-.534 0-1.028-.142-1.372-.348l.212-.675zm6.377 0c.273.164.737.347 1.181.347.636 0 .937-.317.937-.735 0-.43-.252-.654-.897-.9-.888-.326-1.301-.817-1.301-1.4 0-.797.645-1.451 1.684-1.451.494 0 .928.132 1.19.306l-.211.644a1.983 1.983 0 0 0-1-.286c-.524 0-.805.307-.805.674 0 .41.281.593.917.85.837.316 1.281.744 1.281 1.48 0 .88-.676 1.493-1.816 1.493-.535 0-1.028-.142-1.371-.348l.211-.675zm7.677-.266c0 .43.02.85.071 1.186h-.797l-.08-.624h-.031c-.263.389-.798.737-1.493.737-.989 0-1.493-.706-1.493-1.422 0-1.195 1.049-1.85 2.935-1.84V46.3c0-.41-.11-1.155-1.11-1.145-.464 0-.937.133-1.28.368l-.202-.603c.403-.255.999-.43 1.613-.43 1.504 0 1.867 1.033 1.867 2.025v1.85zm-.868-1.338c-.968-.022-2.067.152-2.067 1.114 0 .592.383.858.827.858.645 0 1.059-.41 1.2-.828a.95.95 0 0 0 .04-.286v-.858zm2.411-1.084c0-.521-.01-.93-.04-1.34h.787l.05.809h.02c.242-.46.808-.92 1.614-.92.676 0 1.726.408 1.726 2.105v2.953h-.888V46.7c0-.798-.293-1.473-1.13-1.473-.575 0-1.03.42-1.191.92-.04.113-.06.277-.06.419v2.984h-.888v-3.607zm5.599 2.688c.273.164.737.347 1.18.347.636 0 .939-.317.939-.735 0-.43-.252-.654-.898-.9-.888-.326-1.3-.817-1.3-1.4 0-.797.644-1.451 1.683-1.451.495 0 .929.132 1.19.306l-.212.644a1.98 1.98 0 0 0-.998-.286c-.524 0-.807.307-.807.674 0 .41.283.593.918.85.838.316 1.281.744 1.281 1.48 0 .88-.675 1.493-1.815 1.493-.536 0-1.029-.142-1.372-.348l.211-.675zm6.577.92v-4.263h-.675v-.684h.675v-.235c0-.695.162-1.33.576-1.726.332-.328.777-.461 1.18-.461.323 0 .584.071.757.143l-.11.696a1.358 1.358 0 0 0-.576-.114c-.747 0-.949.675-.949 1.432v.265h1.18v.684h-1.17v4.262h-.888zm2.987-3.404c0-.582-.01-1.083-.04-1.543h.777l.04.97h.03c.223-.663.767-1.082 1.362-1.082.09 0 .161.01.242.02v.848a2.46 2.46 0 0 0-.303-.02c-.625 0-1.07.481-1.19 1.145a2.85 2.85 0 0 0-.03.419v2.647h-.888v-3.404zm5.306 3.516c-1.31 0-2.341-.98-2.341-2.544 0-1.656 1.08-2.627 2.422-2.627 1.402 0 2.35 1.032 2.35 2.535 0 1.839-1.26 2.636-2.421 2.636h-.01zm.04-.674c.848 0 1.483-.808 1.483-1.932 0-.838-.413-1.891-1.462-1.891-1.04 0-1.494.98-1.494 1.922 0 1.083.605 1.9 1.464 1.9h.01zm3.633-3.046c0-.521-.01-.93-.041-1.34h.787l.05.809h.02c.243-.46.808-.92 1.615-.92.675 0 1.725.408 1.725 2.105v2.953h-.89V46.7c0-.798-.29-1.473-1.128-1.473-.575 0-1.029.42-1.19.92a1.35 1.35 0 0 0-.06.419v2.984h-.888v-3.607zm6.748-2.525v1.185h1.271v.686h-1.27v2.657c0 .613.171.96.665.96.242 0 .383-.02.514-.06l.04.684a2.35 2.35 0 0 1-.785.123c-.415 0-.748-.143-.96-.378-.242-.275-.342-.716-.342-1.298v-2.688h-.757v-.686h.757v-.908l.867-.277zm2.814.348c-.323 0-.534-.255-.534-.552 0-.316.222-.562.555-.562.322 0 .544.246.544.562a.536.536 0 0 1-.555.552h-.01zm-.423 5.784h.889v-4.947h-.889v4.947zm2.986-2.309c.02 1.206.778 1.706 1.664 1.706.637 0 1.03-.111 1.352-.255l.162.644c-.312.144-.857.317-1.634.317-1.493 0-2.402-1.012-2.402-2.494 0-1.492.878-2.667 2.302-2.667 1.593 0 2.006 1.42 2.006 2.33 0 .184-.01.317-.03.42h-3.42zm2.593-.645c.01-.571-.231-1.46-1.22-1.46-.908 0-1.293.838-1.362 1.46h2.582zm-1.493-4.128l.888 1.461h-.625l-1.232-1.461h.97zm3.571 3.679c0-.582-.01-1.083-.04-1.543h.777l.04.97h.03c.223-.663.767-1.082 1.361-1.082.092 0 .163.01.243.02v.848c-.09-.01-.18-.02-.303-.02-.625 0-1.07.481-1.189 1.145a2.85 2.85 0 0 0-.03.419v2.647h-.889v-3.404zm3.823 1.094c.02 1.206.777 1.706 1.664 1.706.636 0 1.03-.111 1.352-.255l.162.644c-.314.144-.858.317-1.634.317-1.494 0-2.402-1.012-2.402-2.494 0-1.492.878-2.667 2.3-2.667 1.594 0 2.008 1.42 2.008 2.33 0 .184-.01.317-.03.42h-3.42zm2.592-.645c.01-.571-.23-1.46-1.22-1.46-.908 0-1.292.838-1.363 1.46h2.583zm1.957 2.035c.273.164.737.347 1.18.347.637 0 .939-.317.939-.735 0-.43-.252-.654-.897-.9-.889-.326-1.302-.817-1.302-1.4 0-.797.645-1.451 1.685-1.451.494 0 .928.132 1.19.306l-.213.644a1.977 1.977 0 0 0-.998-.286c-.524 0-.806.307-.806.674 0 .41.282.593.917.85.838.316 1.282.744 1.282 1.48 0 .88-.676 1.493-1.816 1.493-.536 0-1.029-.142-1.373-.348l.212-.675zm-18.744 10.14c-.262.136-.812.273-1.506.273-1.61 0-2.811-1.03-2.811-2.924 0-1.81 1.211-3.028 2.98-3.028.703 0 1.16.155 1.355.25l-.186.616c-.272-.137-.669-.24-1.143-.24-1.339 0-2.227.866-2.227 2.377 0 1.414.804 2.315 2.184 2.315.457 0 .914-.095 1.21-.24l.144.6zm3.835-.806c0 .36.017.71.059.994h-.669l-.067-.524h-.025c-.22.327-.67.618-1.253.618-.83 0-1.253-.592-1.253-1.192 0-1.004.88-1.552 2.463-1.543v-.087c0-.343-.092-.969-.93-.96-.39 0-.788.111-1.076.308l-.17-.506c.34-.214.839-.36 1.355-.36 1.262 0 1.566.866 1.566 1.698v1.554zm-.728-1.125c-.812-.017-1.735.13-1.735.936 0 .497.322.72.694.72.542 0 .888-.343 1.008-.696a.778.778 0 0 0 .033-.239v-.72zm2.024-.909c0-.436-.008-.78-.034-1.123h.66l.043.677h.016c.204-.386.678-.772 1.355-.772.568 0 1.448.344 1.448 1.767v2.478h-.744v-2.392c0-.67-.246-1.235-.949-1.235-.482 0-.864.35-1 .771a1.163 1.163 0 0 0-.051.353v2.503h-.744V55.93zm7.686 2.034c0 .36.017.71.059.994h-.667l-.069-.524h-.025c-.22.327-.67.618-1.253.618-.83 0-1.252-.592-1.252-1.192 0-1.004.88-1.552 2.462-1.543v-.087c0-.343-.092-.969-.93-.96-.39 0-.788.111-1.076.308l-.17-.506c.34-.214.839-.36 1.355-.36 1.262 0 1.567.866 1.567 1.698v1.554zm-.728-1.125c-.812-.017-1.735.13-1.735.936 0 .497.322.72.694.72.542 0 .888-.343 1.009-.696a.804.804 0 0 0 .032-.239v-.72zm5.562-3.971v5.018c0 .368.009.788.034 1.072h-.668l-.034-.72h-.017c-.23.462-.72.814-1.389.814-.99 0-1.76-.85-1.76-2.11-.01-1.389.846-2.23 1.836-2.23.635 0 1.058.3 1.237.626h.016v-2.47h.745zm-.745 3.628c0-.103-.008-.223-.033-.326a1.101 1.101 0 0 0-1.076-.866c-.77 0-1.227.687-1.227 1.595 0 .849.415 1.545 1.21 1.545.5 0 .957-.344 1.093-.91.025-.094.033-.197.033-.318v-.72z" fill="#3B3938"></path><g transform="translate(128.887 54.043)"><mask id="d" fill="#fff"><use xlink:href="#c"></use></mask><path d="M3.6 3.92c0 .36.02.711.061.995h-.67l-.067-.524H2.9c-.22.327-.668.617-1.252.617-.831 0-1.254-.591-1.254-1.191 0-1.004.88-1.553 2.464-1.544v-.086c0-.343-.093-.969-.932-.96-.39 0-.787.111-1.074.308l-.17-.506c.339-.215.837-.36 1.354-.36 1.262 0 1.566.866 1.566 1.698V3.92zm-.727-1.124c-.812-.018-1.735.13-1.735.935 0 .498.322.72.694.72.542 0 .89-.343 1.008-.695a.778.778 0 0 0 .033-.24v-.72z" fill="#3B3938" mask="url(#d)"></path></g></g></svg>