<svg width="710" height="319" xmlns="http://www.w3.org/2000/svg"><g fill="none" fill-rule="evenodd"><path d="M648.821 230.705c2.932 0 5.77.446 8.52 1.335 2.585.837 4.926 2.185 7.027 4.042l.391.354-7.223 7.616c-1.047-1.518-2.447-2.63-4.203-3.336a14.624 14.624 0 00-5.532-1.06c-1.151 0-2.266.131-3.339.394a8.994 8.994 0 00-2.905 1.257 6.524 6.524 0 00-2.079 2.237c-.525.913-.786 2.001-.786 3.258 0 1.884.652 3.323 1.964 4.314 1.306.997 2.929 1.862 4.868 2.596a90.642 90.642 0 006.359 2.119c2.302.681 4.421 1.621 6.36 2.824 1.933 1.206 3.557 2.802 4.868 4.791 1.306 1.989 1.963 4.63 1.963 7.93 0 2.982-.551 5.587-1.651 7.812-1.096 2.226-2.576 4.068-4.434 5.537-1.859 1.466-4.018 2.564-6.478 3.295-2.461.734-5.053 1.1-7.773 1.1-3.453 0-6.782-.575-9.97-1.726-3.042-1.097-5.68-2.904-7.916-5.426l-.332-.384 7.463-7.226a12.46 12.46 0 004.749 4.28 13.315 13.315 0 006.241 1.531c1.151 0 2.304-.156 3.457-.471a10.647 10.647 0 003.138-1.412 7.374 7.374 0 002.276-2.397c.578-.967.867-2.079.867-3.336 0-2.041-.656-3.611-1.963-4.71-1.31-1.098-2.936-2.027-4.87-2.786a77.143 77.143 0 00-6.358-2.158c-2.308-.683-4.427-1.612-6.358-2.788-1.94-1.178-3.562-2.75-4.87-4.714-1.312-1.961-1.964-4.591-1.964-7.889 0-2.878.589-5.366 1.767-7.458a16.152 16.152 0 014.631-5.223c1.913-1.387 4.096-2.421 6.559-3.1a28.222 28.222 0 017.536-1.022zm-298.394 1.414v46.637h23.635v8.952h-33.526v-55.589h9.891zm66.81 0v8.95h-26.931v13.662h25.519v8.951h-25.519v15.074h28.346v8.952h-38.239v-55.589h36.824zm38.717 0l23.942 55.589h-11.302l-5.184-12.722h-24.106l-5.023 12.722H423.21l24.184-55.589h8.56zm49.383 0c3.663 0 7.197.563 10.6 1.687 3.4 1.127 6.411 2.841 9.031 5.144 2.615 2.301 4.708 5.194 6.279 8.675 1.57 3.482 2.354 7.577 2.354 12.287 0 4.764-.903 8.887-2.708 12.366-1.805 3.483-4.135 6.36-6.987 8.638a29.798 29.798 0 01-9.501 5.103c-3.264 1.058-6.469 1.617-9.615 1.682l-.629.007h-20.732v-55.589h21.908zm69.956 0v8.95h-26.928v13.662h25.513v8.951h-25.513v15.074h28.342v8.952h-38.24v-55.589h36.826zm27.016 0c2.671 0 5.247.25 7.732.745 2.49.499 4.699 1.347 6.637 2.55 1.933 1.206 3.479 2.829 4.633 4.871 1.147 2.041 1.727 4.631 1.727 7.772 0 4.032-1.116 7.408-3.337 10.13-2.147 2.622-5.182 4.249-9.1 4.88l-.439.067 14.761 24.574h-11.936l-12.873-23.555h-7.227v23.555h-9.889v-55.589h19.311zm-99.956 8.95h-9.028v37.687h7.379c3.088 0 6.005-.353 8.754-1.059 2.75-.707 5.146-1.808 7.186-3.298 2.043-1.493 3.651-3.429 4.828-5.811 1.176-2.379 1.765-5.272 1.765-8.676 0-3.349-.523-6.228-1.57-8.635-1.047-2.41-2.499-4.357-4.358-5.85-1.858-1.493-4.057-2.59-6.595-3.299-2.539-.706-5.326-1.059-8.361-1.059zm-50.955 2.827l-8.713 22.611h17.271l-8.558-22.611zm150.047-3.298h-8.558v15.074h7.694a46.25 46.25 0 004.24-.194c1.415-.13 2.711-.447 3.887-.946a6.624 6.624 0 002.866-2.276c.73-1.019 1.099-2.443 1.099-4.277 0-1.623-.34-2.93-1.019-3.927a6.379 6.379 0 00-2.671-2.236c-1.101-.497-2.316-.826-3.651-.983a33.913 33.913 0 00-3.887-.235zm-14.471-76.513c4.242 0 8.22.512 11.937 1.531 3.538.973 6.72 2.671 9.55 5.088l.422.368-7.302 7.384c-1.784-1.73-3.943-3.062-6.478-4.006-2.539-.943-5.221-1.414-8.049-1.414-2.881 0-5.484.511-7.808 1.532-2.334 1.021-4.335 2.433-6.009 4.239-1.675 1.809-2.972 3.913-3.887 6.321-.916 2.41-1.375 4.998-1.375 7.774 0 2.982.459 5.73 1.375 8.242.915 2.511 2.212 4.687 3.887 6.516 1.674 1.834 3.675 3.272 6.009 4.32 2.324 1.048 4.927 1.572 7.808 1.572 2.512 0 4.881-.234 7.106-.708 2.041-.433 3.87-1.083 5.49-1.954l.437-.243v-13.113h-11.382v-8.953h21.275v28.425c-6.855 3.664-14.523 5.496-23.006 5.496-4.292 0-8.229-.695-11.814-2.083-3.588-1.385-6.674-3.349-9.264-5.889-2.592-2.536-4.62-5.585-6.085-9.142-1.466-3.562-2.198-7.515-2.198-11.857 0-4.451.732-8.493 2.198-12.131 1.465-3.639 3.493-6.741 6.085-9.306 2.59-2.564 5.676-4.539 9.264-5.928 3.585-1.385 7.522-2.081 11.814-2.081zm-220.055 0c3.767 0 7.258.666 10.479 2.004 3.075 1.271 5.943 3.394 8.61 6.36l.38.43-7.692 5.652c-2.044-2.196-4.021-3.661-5.931-4.395-1.911-.734-3.835-1.1-5.77-1.1-2.88 0-5.483.511-7.813 1.532-2.328 1.021-4.331 2.433-6.005 4.239-1.678 1.809-2.972 3.913-3.887 6.321-.917 2.41-1.373 4.998-1.373 7.774 0 2.982.456 5.73 1.373 8.242.915 2.511 2.209 4.687 3.887 6.516 1.674 1.834 3.677 3.272 6.005 4.32 2.33 1.048 4.933 1.572 7.813 1.572 2.249 0 4.437-.536 6.556-1.609 1.993-1.01 3.862-2.59 5.603-4.734l.325-.408 8.167 5.807c-2.515 3.454-5.577 5.968-9.187 7.539-3.611 1.566-7.462 2.355-11.54 2.355-4.294 0-8.233-.695-11.818-2.083-3.588-1.385-6.673-3.349-9.268-5.889-2.589-2.536-4.618-5.585-6.082-9.142-1.466-3.562-2.198-7.515-2.198-11.857 0-4.451.732-8.493 2.198-12.131 1.464-3.639 3.493-6.741 6.082-9.306 2.595-2.564 5.68-4.539 9.268-5.928 3.585-1.385 7.524-2.081 11.818-2.081zm286.427 1.412v8.953h-26.931v13.661h25.516v8.952h-25.516v15.074h28.343v8.953h-38.236v-55.593h36.824zm-249.771 0v22.145h25.987v-22.145h9.895v55.593h-9.895v-24.499h-25.987v24.499h-9.893v-55.593h9.893zm72.906 0l23.95 55.593h-11.307l-5.179-12.723h-24.107l-5.024 12.723h-11.072l24.184-55.593h8.555zm39.779 0l26.929 41.304h.157v-41.304h9.893v55.593h-12.562l-27.48-42.634h-.158v42.634h-9.893v-55.593h13.114zm-44.329 11.78l-8.714 22.613h17.271l-8.557-22.613zm-62.546-79.808c4.24 0 8.138.744 11.697 2.236 3.56 1.492 6.611 3.546 9.149 6.161 2.539 2.62 4.525 5.708 5.968 9.267 1.437 3.559 2.156 7.406 2.156 11.54 0 4.138-.719 7.985-2.156 11.544-1.443 3.561-3.429 6.646-5.968 9.264-2.538 2.617-5.589 4.673-9.149 6.166-3.559 1.49-7.457 2.236-11.697 2.236-4.242 0-8.138-.746-11.701-2.236-3.556-1.493-6.605-3.549-9.146-6.166-2.539-2.618-4.529-5.703-5.965-9.264-1.444-3.559-2.16-7.406-2.16-11.544 0-4.134.716-7.981 2.16-11.54 1.436-3.559 3.426-6.647 5.965-9.267 2.541-2.615 5.59-4.669 9.146-6.161 3.563-1.492 7.459-2.236 11.701-2.236zm-32.968 1.412v7.065h-27.403v17.429h25.519v7.068h-25.519v24.025h-7.537V98.881h34.94zm67.34 0h19.55c3.559 0 6.492.486 8.793 1.452 2.303.97 4.126 2.197 5.458 3.69 1.332 1.492 2.265 3.168 2.787 5.024.524 1.86.784 3.651.784 5.379 0 1.779-.311 3.494-.941 5.144a14.46 14.46 0 01-2.71 4.476c-1.177 1.333-2.615 2.46-4.316 3.374-1.572.848-3.31 1.392-5.213 1.634l-.479.054 15.783 25.36h-9.424l-14.133-24.496h-8.401v24.496h-7.538V98.881h19.55-19.55zm-34.372 5.653c-3.195 0-6.073.588-8.637 1.768-2.565 1.177-4.766 2.76-6.595 4.749-1.832 1.991-3.246 4.33-4.24 7.027-.995 2.695-1.494 5.562-1.494 8.595 0 3.039.499 5.904 1.494 8.601.994 2.695 2.408 5.036 4.24 7.025 1.829 1.991 4.03 3.574 6.595 4.751 2.564 1.177 5.442 1.766 8.637 1.766 3.191 0 6.072-.589 8.637-1.766 2.563-1.177 4.762-2.76 6.596-4.751 1.831-1.989 3.243-4.33 4.238-7.025.997-2.697 1.492-5.562 1.492-8.601 0-3.033-.495-5.9-1.492-8.595-.995-2.697-2.407-5.036-4.238-7.027-1.834-1.989-4.033-3.572-6.596-4.749-2.565-1.18-5.446-1.768-8.637-1.768zm51.804.942h-9.894v17.899h9.894c1.463 0 2.914-.115 4.357-.351 1.438-.235 2.721-.665 3.847-1.294 1.124-.629 2.029-1.531 2.707-2.71.68-1.177 1.02-2.71 1.02-4.594 0-1.883-.34-3.413-1.02-4.593-.678-1.177-1.583-2.081-2.707-2.71-1.126-.628-2.409-1.059-3.847-1.295a27.05 27.05 0 00-4.357-.352zm-26.696-74.63c3.038 0 5.939.421 8.714 1.258 2.775.839 5.209 2.539 7.305 5.104l-6.124 5.574c-.944-1.464-2.278-2.644-4.007-3.533-1.725-.889-3.691-1.333-5.888-1.333-2.091 0-3.835.274-5.221.822-1.389.549-2.5 1.257-3.337 2.121-.839.862-1.427 1.793-1.768 2.788-.34.991-.51 1.91-.51 2.747 0 2.355.68 4.163 2.043 5.417 1.363 1.256 3.05 2.277 5.063 3.061 2.015.789 4.213 1.492 6.598 2.121 2.379.629 4.577 1.506 6.592 2.633a15.33 15.33 0 015.066 4.55c1.36 1.914 2.041 4.543 2.041 7.892 0 2.67-.511 5.079-1.529 7.226-1.023 2.146-2.398 3.952-4.123 5.414-1.729 1.467-3.77 2.592-6.124 3.379-2.357.784-4.869 1.177-7.538 1.177-3.562 0-6.938-.629-10.129-1.886-3.196-1.255-5.732-3.191-7.614-5.808l6.202-5.339c1.36 2.04 3.101 3.546 5.219 4.512 2.122.97 4.308 1.453 6.557 1.453a13.33 13.33 0 003.848-.588 11.686 11.686 0 003.573-1.766 9.622 9.622 0 002.627-2.905c.681-1.15 1.021-2.487 1.021-4.005 0-2.147-.677-3.779-2.041-4.909-1.359-1.122-3.047-2.066-5.061-2.825a101.238 101.238 0 00-6.597-2.199 26.633 26.633 0 01-6.596-2.943c-2.014-1.257-3.702-2.945-5.062-5.067-1.362-2.116-2.041-4.983-2.041-8.595 0-1.62.351-3.348 1.056-5.184.708-1.831 1.819-3.504 3.339-5.024 1.518-1.518 3.468-2.787 5.849-3.807 2.382-1.022 5.248-1.533 8.597-1.533zm144.828 1.416v34.076c0 1.728.236 3.518.706 5.377a15.602 15.602 0 002.356 5.144c1.101 1.57 2.54 2.853 4.321 3.847 1.776.994 3.971 1.49 6.591 1.49 2.621 0 4.818-.496 6.598-1.49 1.777-.994 3.217-2.277 4.317-3.847a15.6 15.6 0 002.355-5.144c.474-1.859.708-3.649.708-5.377V32.262h7.537v35.253c0 3.246-.553 6.188-1.648 8.833-1.1 2.645-2.62 4.934-4.554 6.868-1.938 1.94-4.214 3.431-6.832 4.475-2.617 1.049-5.445 1.573-8.481 1.573-3.035 0-5.86-.524-8.477-1.573-2.616-1.044-4.897-2.535-6.832-4.475-1.936-1.934-3.454-4.223-4.552-6.868-1.101-2.645-1.65-5.587-1.65-8.833V32.262h7.537zm-230.307.002v55.587h-7.537V32.264h7.537zm20.157-.002l30.622 45.694h.155V32.262h7.539v55.589h-9.582l-30.934-45.697h-.157v45.697h-7.539V32.262h9.896zm130.657 0v7.067h-17.902v48.522h-7.538V39.329h-17.903v-7.067h43.343zm14.726.002v55.587h-7.536V32.264h7.536zm50.533-.002v7.067h-17.905v48.522h-7.535V39.329h-17.899v-7.067h43.339zm99.799 0v7.067h-17.899v48.522h-7.539V39.329h-17.901v-7.067h43.339zm43.072 0v7.067h-28.342v16.565h26.38v7.068h-26.38v17.822h29.758v7.067h-37.297V32.262h35.881z" fill="#FFF"/><path d="M276.029 92.484c19.556 23.767 31.311 54.2 31.311 87.389 0 .498 0 .999-.024 1.498-6.424 25.436-20.391 47.848-39.402 64.742 15.369-23.056 24.315-50.705 24.315-80.465 0-19.704-3.924-38.499-11.038-55.63a135.18 135.18 0 00-5.162-17.534zM146.859 2.452c30.098 0 57.961 9.66 80.608 26.052-14.156-5.327-29.477-8.232-45.491-8.232-5.757 0-11.443.382-17.01 1.122a146.057 146.057 0 00-18.107-1.122c-60.622 0-112.586 37.117-134.379 89.866C26.136 48.54 81.122 2.452 146.859 2.452z" fill="#138041"/><path d="M40.505 227.484c25.221 30.689 63.504 50.272 106.353 50.272 4.665 0 9.282-.24 13.826-.691a128 128 0 0021.291 1.761c33.001 0 63.123-12.347 85.941-32.714-26.029 39.113-70.545 64.906-121.058 64.906-8.685 0-17.178-.763-25.431-2.213-37.428-13.991-67.095-43.824-80.922-81.321zM164.966 21.391c40.59 5.047 75.991 26.813 99.047 58.22-24.648-23.197-57.84-37.377-94.315-37.377-39.257 0-74.659 16.417-99.738 42.754 19.655-34.024 54.344-58.27 95.006-63.597z" fill="#91C33F"/><path d="M307.317 181.371c-.788 75.327-62.101 136.142-137.619 136.142-16.986 0-33.26-3.069-48.271-8.708a146.833 146.833 0 0025.431 2.213c50.513 0 95.029-25.793 121.058-64.906 19.009-16.893 32.977-39.308 39.401-64.741zM146.858 20.272c6.14 0 12.182.382 18.106 1.122-40.659 5.327-75.35 29.57-95.003 63.594-23.507 24.697-37.925 58.102-37.925 94.885 0 16.75 2.975 32.786 8.471 47.609-19.558-23.791-31.311-54.201-31.311-87.387 0-10.281 1.118-20.322 3.284-29.957 21.793-52.747 73.757-89.866 134.378-89.866z" fill="#FFE115"/><path d="M276.029 92.484c19.556 23.767 31.311 54.2 31.311 87.389 0 .498 0 .996-.024 1.498-.784 75.327-62.099 136.142-137.618 136.142-16.986 0-33.261-3.069-48.272-8.708-37.427-13.991-67.095-43.827-80.921-81.323-5.493-14.823-8.468-30.859-8.468-47.609 0-36.783 14.416-70.188 37.923-94.885 25.079-26.337 60.481-42.754 99.738-42.754 36.475 0 69.667 14.18 94.315 37.379 4.282 4.042 8.304 8.325 12.016 12.871zm5.162 17.534a137.78 137.78 0 013.305 30.077c0 71.372-54.292 130.048-123.813 136.97a139.4 139.4 0 01-13.824.691c-42.849 0-81.13-19.583-106.354-50.274-19.554-23.791-31.31-54.201-31.31-87.387 0-10.281 1.12-20.322 3.285-29.957C26.136 48.54 81.122 2.452 146.859 2.452c30.099 0 57.958 9.66 80.608 26.052 21.961 15.897 39.044 38.118 48.562 63.98a135.022 135.022 0 015.162 17.534zm0 0c7.115 17.131 11.038 35.926 11.038 55.63 0 29.76-8.945 57.407-24.315 80.465-26.025 39.115-70.542 64.902-121.055 64.902-8.686 0-17.177-.758-25.433-2.21C53.282 296.766 1.487 237.238 1.487 165.648c0-19.653 3.901-38.407 10.993-55.51 21.791-52.747 73.758-89.866 134.379-89.866 6.138 0 12.183.382 18.107 1.122 40.59 5.044 75.991 26.813 99.047 58.219a143.554 143.554 0 0117.178 30.405zm-53.724-81.514c48.966 18.393 83.796 65.671 83.796 121.058 0 10.968-1.353 21.628-3.947 31.809-6.424 25.436-20.391 47.848-39.402 64.742-22.814 20.363-52.938 32.716-85.937 32.716-7.257 0-14.372-.597-21.294-1.764C99.416 266.932 52.71 213.705 52.71 149.562c0-23.507 6.284-45.563 17.25-64.574 19.655-34.024 54.344-58.267 95.006-63.594a129.14 129.14 0 0117.011-1.122c16.013 0 31.334 2.902 45.49 8.232z" stroke="#138041" stroke-width="2.975"/></g></svg>