<?xml version="1.0" encoding="UTF-8" standalone="no"?><!DOCTYPE svg PUBLIC "-//W3C//DTD SVG 1.1//EN" "http://www.w3.org/Graphics/SVG/1.1/DTD/svg11.dtd"><svg width="100%" height="100%" viewBox="0 0 216 83" version="1.1" xmlns="http://www.w3.org/2000/svg" xmlns:xlink="http://www.w3.org/1999/xlink" xml:space="preserve" xmlns:serif="http://www.serif.com/" style="fill-rule:evenodd;clip-rule:evenodd;stroke-linejoin:round;stroke-miterlimit:2;"><g><path d="M126.247,16.309c-0.569,-0.156 -1.153,-0.286 -1.77,-0.363c-1.006,-0.126 -2.011,-0.189 -3.016,-0.189c-1.886,0 -3.615,0.2 -5.187,0.597c-1.571,0.399 -2.965,0.892 -4.18,1.478l0,31.553l5.406,0l0,-28.159c1.341,-0.544 2.786,-0.817 4.338,-0.817c1.628,0 3.096,0.283 4.409,0.837l0,-4.937Z" style="fill:#023252;fill-rule:nonzero;"/><path d="M100.295,44.985c-1.342,0.294 -2.577,0.44 -3.709,0.44c-1.844,0 -3.269,-0.46 -4.274,-1.383c-1.005,-0.921 -1.508,-2.346 -1.508,-4.274c0,-1.131 0.146,-2.063 0.44,-2.797c0.292,-0.732 0.701,-1.32 1.225,-1.759c0.524,-0.441 1.142,-0.755 1.854,-0.943c0.713,-0.189 1.466,-0.284 2.263,-0.284c1.216,0 2.452,0.168 3.709,0.503l0,10.497Zm-4.652,-29.416c-1.424,0 -2.745,0.137 -3.959,0.409c-0.848,0.19 -1.653,0.442 -2.439,0.724l0,4.505l0.113,0.459c0.964,-0.419 1.875,-0.723 2.734,-0.912c0.858,-0.188 1.77,-0.282 2.734,-0.282c1.76,0 3.112,0.482 4.055,1.445c0.943,0.965 1.414,2.662 1.414,5.092l0,3.017c-1.677,-0.335 -3.206,-0.503 -4.589,-0.503c-1.467,0 -2.829,0.22 -4.085,0.66c-1.257,0.44 -2.348,1.09 -3.269,1.948c-0.923,0.859 -1.645,1.928 -2.169,3.206c-0.523,1.278 -0.785,2.776 -0.785,4.494c0,1.845 0.293,3.405 0.88,4.683c0.587,1.278 1.372,2.336 2.357,3.174c0.984,0.838 2.137,1.446 3.457,1.823c1.32,0.377 2.734,0.566 4.243,0.566c1.509,0 3.049,-0.126 4.62,-0.378c1.572,-0.251 3.111,-0.586 4.62,-1.005l0,-21.874c0,-3.855 -0.922,-6.694 -2.765,-8.517c-1.845,-1.823 -4.235,-2.734 -7.167,-2.734Z" style="fill:#023252;fill-rule:nonzero;"/><path d="M190.213,45.265c-0.941,-0.263 -1.634,-0.639 -2.075,-1.129c-0.587,-0.649 -0.88,-1.706 -0.88,-3.174l0,-39.445l-5.203,0l-0.202,0.035l0,39.285c0,3.142 0.669,5.437 2.01,6.882c1.294,1.396 3.417,2.15 6.35,2.277l0,-4.731Z" style="fill:#023252;fill-rule:nonzero;"/><path d="M144.561,42.471c-0.589,0.294 -1.206,0.524 -1.855,0.692c-0.65,0.168 -1.33,0.251 -2.043,0.251c-2.095,0 -3.709,-0.806 -4.84,-2.42c-1.131,-1.613 -1.697,-4.389 -1.697,-8.328c0,-4.358 0.576,-7.501 1.729,-9.429c1.153,-1.926 2.985,-2.891 5.499,-2.891c0.462,0 0.965,0.031 1.509,0.094c0.544,0.063 1.109,0.179 1.698,0.346l0,21.685Zm-3.144,-26.902c-2.346,0 -4.336,0.388 -5.97,1.163c-1.635,0.776 -2.966,1.907 -3.992,3.394c-1.028,1.488 -1.782,3.29 -2.263,5.405c-0.482,2.117 -0.724,4.495 -0.724,7.135c0,4.944 0.913,8.768 2.735,11.47c1.823,2.703 4.704,4.055 8.643,4.055c0.964,0 1.823,-0.094 2.577,-0.283c0.755,-0.189 1.466,-0.429 2.138,-0.723l0,1.571c0,2.849 -0.589,4.861 -1.761,6.035c-1.174,1.172 -2.787,1.76 -4.839,1.76c-1.175,0 -2.306,-0.168 -3.395,-0.504c-1.064,-0.327 -1.964,-0.695 -2.709,-1.102l0,5.035c0.795,0.323 1.633,0.588 2.521,0.782c1.341,0.293 2.68,0.44 4.022,0.44c1.593,0 3.09,-0.231 4.495,-0.691c1.403,-0.462 2.629,-1.195 3.676,-2.2c1.047,-1.006 1.876,-2.316 2.483,-3.929c0.607,-1.613 0.912,-3.594 0.912,-5.94l0,-31.176c-1.173,-0.503 -2.505,-0.912 -3.992,-1.225c-1.487,-0.315 -3.006,-0.472 -4.557,-0.472Z" style="fill:#023252;fill-rule:nonzero;"/><path d="M201.211,22.578c0.817,-1.801 2.127,-2.703 3.929,-2.703c1.8,0 3.016,0.891 3.645,2.672c0.628,1.781 0.943,4.201 0.943,7.259l-9.994,0c0.167,-3.017 0.66,-5.426 1.477,-7.228Zm11.538,21.149c-0.464,0.246 -1.184,0.54 -2.173,0.882c-1.027,0.356 -2.147,0.534 -3.363,0.534c-1.466,0 -2.671,-0.272 -3.614,-0.817c-0.942,-0.544 -1.697,-1.309 -2.262,-2.294c-0.566,-0.984 -0.975,-2.137 -1.225,-3.457c-0.253,-1.32 -0.399,-2.776 -0.441,-4.369l15.652,0c0.04,-0.503 0.062,-0.994 0.062,-1.477l0,-1.414c0,-5.069 -0.776,-9.009 -2.325,-11.817c-1.552,-2.807 -4.191,-4.211 -7.92,-4.211c-3.312,0 -5.971,1.404 -7.983,4.211c-2.012,2.808 -3.018,7.25 -3.018,13.326c0,2.513 0.209,4.819 0.629,6.913c0.418,2.096 1.121,3.897 2.106,5.406c0.983,1.508 2.262,2.682 3.834,3.52c1.572,0.837 3.509,1.257 5.815,1.257c1.759,0 3.278,-0.22 4.556,-0.66c0.654,-0.225 1.208,-0.442 1.67,-0.65l0,-4.883Z" style="fill:#023252;fill-rule:nonzero;"/><path d="M169.339,29.9c-1.005,4.233 -2.116,8.444 -3.331,12.634c-0.503,-1.676 -1.027,-3.614 -1.571,-5.814c-0.546,-2.2 -1.079,-4.473 -1.603,-6.82c-0.525,-2.346 -1.016,-4.692 -1.477,-7.04c-0.462,-2.346 -0.86,-4.504 -1.195,-6.474l-5.719,0c0.587,2.891 1.238,5.856 1.952,8.894c0.714,3.039 1.46,6.003 2.236,8.894c0.777,2.892 1.575,5.668 2.394,8.328c0.819,2.662 1.627,5.081 2.425,7.26l-0.629,1.571c-0.714,1.761 -1.448,3.08 -2.205,3.96c-0.755,0.88 -1.743,1.32 -2.96,1.32c-0.961,0 -1.983,-0.229 -3.067,-0.684l0,4.748c0.271,0.082 0.55,0.164 0.864,0.242c0.757,0.189 1.514,0.283 2.269,0.283c1.388,0 2.585,-0.22 3.593,-0.661c1.009,-0.439 1.944,-1.152 2.805,-2.136c0.862,-0.985 1.661,-2.284 2.395,-3.897c0.737,-1.614 1.503,-3.594 2.302,-5.94c0.667,-2.012 1.385,-4.243 2.157,-6.694c0.772,-2.452 1.542,-5.06 2.314,-7.826c0.772,-2.765 1.522,-5.635 2.252,-8.611c0.73,-2.975 1.408,-5.992 2.034,-9.051l-5.343,0c-0.923,4.777 -1.886,9.282 -2.892,13.514Z" style="fill:#023252;fill-rule:nonzero;"/><path d="M57.092,49.595l-13.738,-18.941l13.738,-18.941l13.736,18.941l-13.736,18.941Zm-35.422,0l-13.738,-18.941l13.738,-18.941l13.737,18.941l-13.737,18.941Zm57.092,-18.952l-0.017,0l-21.65,-29.955l0,-0.009l-0.003,0.004l-0.004,-0.004l0,0.009l-17.707,24.499l-17.708,-24.499l0,-0.009l-0.003,0.004l-0.004,-0.004l0,0.009l-21.65,29.955l-0.016,0l0.008,0.011l-0.008,0.012l0.016,0l21.65,29.954l0,0.009l0.004,-0.004l0.003,0.004l0,-0.009l17.708,-24.499l17.707,24.499l0,0.009l0.004,-0.004l0.003,0.004l0,-0.009l21.65,-29.954l0.017,0l-0.009,-0.012l0.009,-0.011Z" style="fill:#398ac9;fill-rule:nonzero;"/><path d="M43.191,41.388l1.488,-8.912l-1.325,-1.822l-3.976,5.488l3.813,5.246Z" style="fill:#023252;fill-rule:nonzero;"/><path d="M57.79,80.177c0.251,-0.088 0.458,-0.192 0.621,-0.295l-0.281,-0.991c-0.163,0.089 -0.326,0.163 -0.488,0.207c-0.177,0.059 -0.37,0.089 -0.591,0.089c-0.311,0 -0.577,-0.074 -0.769,-0.222c-0.207,-0.148 -0.369,-0.355 -0.488,-0.606c-0.133,-0.251 -0.221,-0.562 -0.266,-0.931c-0.044,-0.355 -0.074,-0.739 -0.074,-1.168c0,-1.02 0.133,-1.759 0.385,-2.246c0.251,-0.488 0.635,-0.725 1.167,-0.725c0.37,0 0.71,0.104 1.02,0.296l0.325,-1.05c-0.192,-0.103 -0.413,-0.192 -0.635,-0.266c-0.222,-0.074 -0.488,-0.103 -0.769,-0.103c-0.946,0 -1.655,0.355 -2.114,1.079c-0.473,0.724 -0.709,1.729 -0.709,3.015c0,0.577 0.044,1.124 0.148,1.611c0.088,0.488 0.251,0.917 0.473,1.272c0.222,0.369 0.502,0.65 0.857,0.857c0.355,0.207 0.798,0.31 1.33,0.31c0.311,0 0.592,-0.044 0.858,-0.133Z" style="fill:#023252;fill-rule:nonzero;"/><path d="M64.53,74.59c-0.103,-0.503 -0.266,-0.931 -0.488,-1.301c-0.221,-0.355 -0.502,-0.635 -0.842,-0.828c-0.34,-0.192 -0.754,-0.295 -1.212,-0.295c-0.458,0 -0.872,0.103 -1.212,0.295c-0.34,0.193 -0.621,0.473 -0.843,0.828c-0.222,0.37 -0.399,0.798 -0.502,1.301c-0.104,0.503 -0.163,1.049 -0.163,1.655c0,0.606 0.059,1.168 0.163,1.656c0.103,0.502 0.28,0.931 0.502,1.286c0.222,0.355 0.503,0.635 0.843,0.828c0.34,0.192 0.754,0.295 1.212,0.295c0.458,0 0.872,-0.103 1.212,-0.295c0.34,-0.193 0.621,-0.473 0.842,-0.828c0.222,-0.355 0.385,-0.784 0.488,-1.286c0.104,-0.488 0.163,-1.05 0.163,-1.656c0,-0.606 -0.059,-1.152 -0.163,-1.655Zm-1.242,2.838c-0.044,0.369 -0.133,0.68 -0.236,0.931c-0.103,0.251 -0.251,0.458 -0.429,0.591c-0.177,0.148 -0.384,0.222 -0.635,0.222c-0.252,0 -0.473,-0.074 -0.636,-0.222c-0.177,-0.133 -0.325,-0.34 -0.428,-0.591c-0.119,-0.251 -0.207,-0.562 -0.252,-0.931c-0.044,-0.355 -0.074,-0.754 -0.074,-1.183c0,-0.428 0.03,-0.827 0.074,-1.197c0.045,-0.355 0.133,-0.665 0.252,-0.931c0.103,-0.251 0.251,-0.458 0.428,-0.606c0.163,-0.133 0.384,-0.207 0.636,-0.207c0.251,0 0.458,0.074 0.635,0.207c0.178,0.148 0.326,0.355 0.429,0.606c0.103,0.266 0.192,0.576 0.236,0.931c0.045,0.37 0.074,0.769 0.074,1.197c0,0.429 -0.029,0.828 -0.074,1.183Z" style="fill:#023252;fill-rule:nonzero;"/><path d="M66.555,80.118l1.271,0l0,-6.651c0.325,-0.104 0.621,-0.148 0.872,-0.148c0.488,0 0.828,0.177 1.005,0.532c0.177,0.355 0.266,0.916 0.266,1.685l0,4.582l1.271,0l0,-4.686c0,-0.354 -0.014,-0.679 -0.059,-0.96c-0.044,-0.281 -0.103,-0.547 -0.177,-0.769c0.162,-0.118 0.355,-0.207 0.547,-0.281c0.192,-0.074 0.369,-0.103 0.561,-0.103c0.488,0 0.828,0.177 1.006,0.532c0.177,0.355 0.266,0.916 0.266,1.685l0,4.582l1.271,0l0,-4.686c0,-0.62 -0.059,-1.138 -0.178,-1.566c-0.118,-0.414 -0.28,-0.739 -0.487,-0.991c-0.207,-0.251 -0.459,-0.428 -0.739,-0.532c-0.296,-0.103 -0.621,-0.148 -0.976,-0.148c-0.355,0 -0.68,0.06 -0.976,0.163c-0.295,0.103 -0.576,0.251 -0.827,0.414c-0.222,-0.207 -0.458,-0.355 -0.739,-0.444c-0.281,-0.088 -0.606,-0.133 -0.946,-0.133c-0.34,0 -0.71,0.03 -1.109,0.104c-0.399,0.074 -0.783,0.177 -1.123,0.281l0,7.538Z" style="fill:#023252;fill-rule:nonzero;"/><path d="M76.872,80.118l1.271,0l0,-6.651c0.325,-0.104 0.621,-0.148 0.872,-0.148c0.488,0 0.828,0.177 1.005,0.532c0.178,0.355 0.267,0.916 0.267,1.685l0,4.582l1.271,0l0,-4.686c0,-0.354 -0.015,-0.679 -0.059,-0.96c-0.045,-0.281 -0.104,-0.547 -0.178,-0.769c0.163,-0.118 0.355,-0.207 0.547,-0.281c0.192,-0.074 0.37,-0.103 0.562,-0.103c0.488,0 0.828,0.177 1.005,0.532c0.177,0.355 0.266,0.916 0.266,1.685l0,4.582l1.271,0l0,-4.686c0,-0.62 -0.059,-1.138 -0.177,-1.566c-0.118,-0.414 -0.281,-0.739 -0.488,-0.991c-0.207,-0.251 -0.458,-0.428 -0.739,-0.532c-0.296,-0.103 -0.621,-0.148 -0.976,-0.148c-0.354,0 -0.68,0.06 -0.975,0.163c-0.296,0.103 -0.577,0.251 -0.828,0.414c-0.222,-0.207 -0.458,-0.355 -0.739,-0.444c-0.281,-0.088 -0.606,-0.133 -0.946,-0.133c-0.34,0 -0.709,0.03 -1.109,0.104c-0.399,0.074 -0.783,0.177 -1.123,0.281l0,7.538Z" style="fill:#023252;fill-rule:nonzero;"/><path d="M91.993,72.358l-1.271,0l0,6.681c-0.163,0.044 -0.325,0.074 -0.488,0.089c-0.163,0.015 -0.31,0.029 -0.473,0.029c-0.473,0 -0.828,-0.162 -1.05,-0.473c-0.236,-0.31 -0.354,-0.842 -0.354,-1.596l0,-4.73l-1.271,0l0,4.774c0,0.621 0.059,1.138 0.192,1.538c0.133,0.413 0.31,0.739 0.547,0.975c0.236,0.237 0.517,0.399 0.857,0.488c0.34,0.103 0.709,0.148 1.109,0.148c0.162,0 0.354,-0.015 0.561,-0.045c0.192,-0.014 0.399,-0.044 0.606,-0.088c0.192,-0.03 0.385,-0.074 0.577,-0.119c0.177,-0.044 0.325,-0.088 0.458,-0.133l0,-7.538Z" style="fill:#023252;fill-rule:nonzero;"/><path d="M94.284,80.118l1.271,0l0,-6.651c0.355,-0.104 0.68,-0.148 0.961,-0.148c0.547,0 0.917,0.177 1.109,0.532c0.192,0.355 0.295,0.916 0.295,1.685l0,4.582l1.272,0l0,-4.686c0,-0.62 -0.06,-1.138 -0.178,-1.566c-0.133,-0.414 -0.295,-0.739 -0.517,-0.991c-0.222,-0.251 -0.503,-0.428 -0.813,-0.532c-0.311,-0.103 -0.665,-0.148 -1.05,-0.148c-0.354,0 -0.739,0.03 -1.167,0.104c-0.429,0.074 -0.813,0.177 -1.183,0.281l0,7.538Z" style="fill:#023252;fill-rule:nonzero;"/><path d="M102.68,72.358l-1.271,0l0,7.76l1.271,0l0,-7.76Zm-0.044,-1.611c0.162,-0.148 0.236,-0.355 0.236,-0.606c0,-0.251 -0.074,-0.458 -0.236,-0.621c-0.163,-0.148 -0.37,-0.222 -0.592,-0.222c-0.221,0 -0.414,0.074 -0.576,0.222c-0.163,0.163 -0.251,0.37 -0.251,0.621c0,0.251 0.088,0.458 0.251,0.606c0.162,0.162 0.355,0.236 0.576,0.236c0.222,0 0.429,-0.074 0.592,-0.236Z" style="fill:#023252;fill-rule:nonzero;"/><path d="M108.208,80.177c0.251,-0.088 0.458,-0.192 0.621,-0.295l-0.281,-0.991c-0.163,0.089 -0.326,0.163 -0.488,0.207c-0.177,0.059 -0.37,0.089 -0.591,0.089c-0.311,0 -0.577,-0.074 -0.769,-0.222c-0.207,-0.148 -0.369,-0.355 -0.488,-0.606c-0.133,-0.251 -0.221,-0.562 -0.266,-0.931c-0.044,-0.355 -0.074,-0.739 -0.074,-1.168c0,-1.02 0.133,-1.759 0.385,-2.246c0.251,-0.488 0.635,-0.725 1.167,-0.725c0.37,0 0.71,0.104 1.02,0.296l0.325,-1.05c-0.192,-0.103 -0.413,-0.192 -0.635,-0.266c-0.222,-0.074 -0.488,-0.103 -0.769,-0.103c-0.946,0 -1.655,0.355 -2.114,1.079c-0.473,0.724 -0.709,1.729 -0.709,3.015c0,0.577 0.044,1.124 0.148,1.611c0.088,0.488 0.251,0.917 0.473,1.272c0.222,0.369 0.502,0.65 0.857,0.857c0.355,0.207 0.798,0.31 1.33,0.31c0.311,0 0.592,-0.044 0.858,-0.133Z" style="fill:#023252;fill-rule:nonzero;"/><path d="M110.588,73.6c0.221,-0.104 0.443,-0.178 0.65,-0.222c0.192,-0.044 0.414,-0.059 0.635,-0.059c0.414,0 0.74,0.118 0.961,0.34c0.222,0.221 0.325,0.621 0.325,1.197l0,0.71c-0.399,-0.074 -0.753,-0.119 -1.079,-0.119c-0.34,0 -0.665,0.045 -0.96,0.148c-0.296,0.104 -0.547,0.266 -0.769,0.458c-0.222,0.207 -0.384,0.459 -0.503,0.754c-0.133,0.311 -0.192,0.665 -0.192,1.064c0,0.429 0.074,0.799 0.207,1.094c0.133,0.311 0.325,0.562 0.562,0.754c0.222,0.192 0.502,0.34 0.813,0.429c0.31,0.088 0.635,0.133 0.99,0.133c0.355,0 0.724,-0.03 1.094,-0.089c0.37,-0.059 0.724,-0.133 1.079,-0.236l0,-5.144c0,-0.902 -0.222,-1.582 -0.65,-2.011c-0.429,-0.428 -0.991,-0.635 -1.685,-0.635c-0.34,0 -0.651,0.029 -0.932,0.089c-0.28,0.073 -0.561,0.162 -0.813,0.266l0.267,1.079Zm0.443,3.591c0.074,-0.162 0.163,-0.31 0.296,-0.413c0.118,-0.104 0.266,-0.178 0.428,-0.222c0.163,-0.044 0.34,-0.059 0.532,-0.059c0.281,0 0.577,0.044 0.872,0.118l0,2.468c-0.31,0.074 -0.606,0.104 -0.872,0.104c-0.428,0 -0.768,-0.104 -1.005,-0.325c-0.236,-0.222 -0.355,-0.547 -0.355,-1.005c0,-0.266 0.03,-0.488 0.104,-0.666Z" style="fill:#023252;fill-rule:nonzero;"/><path d="M117.8,70.052l-1.271,0.222l0,7.361c0,0.946 0.177,1.626 0.547,2.025c0.355,0.414 0.902,0.621 1.626,0.621c0.458,0 0.887,-0.119 1.286,-0.355l-0.251,-1.02c-0.104,0.074 -0.237,0.133 -0.385,0.177c-0.162,0.045 -0.325,0.074 -0.488,0.074c-0.325,0 -0.576,-0.103 -0.768,-0.325c-0.192,-0.207 -0.296,-0.576 -0.296,-1.108l0,-4.272l1.951,0l0,-1.094l-1.951,0l0,-2.306Z" style="fill:#023252;fill-rule:nonzero;"/><path d="M125.841,76.615c0.015,-0.118 0.015,-0.237 0.015,-0.355l0,-0.325c0,-1.197 -0.177,-2.114 -0.547,-2.779c-0.369,-0.665 -0.99,-0.99 -1.862,-0.99c-0.784,0 -1.404,0.325 -1.877,0.99c-0.473,0.665 -0.71,1.7 -0.71,3.134c0,0.591 0.044,1.138 0.148,1.626c0.103,0.487 0.266,0.916 0.502,1.271c0.222,0.355 0.533,0.635 0.902,0.828c0.37,0.192 0.813,0.295 1.36,0.295c0.414,0 0.769,-0.059 1.079,-0.162c0.296,-0.104 0.502,-0.192 0.635,-0.281l-0.236,-1.02c-0.103,0.059 -0.281,0.133 -0.517,0.207c-0.252,0.089 -0.518,0.133 -0.799,0.133c-0.339,0 -0.62,-0.059 -0.842,-0.192c-0.222,-0.133 -0.399,-0.311 -0.532,-0.547c-0.133,-0.222 -0.237,-0.503 -0.296,-0.813c-0.059,-0.311 -0.088,-0.65 -0.103,-1.02l3.68,0Zm-1.537,-2.749c0.148,0.428 0.222,0.99 0.222,1.714l-2.35,0c0.044,-0.709 0.162,-1.271 0.354,-1.7c0.192,-0.428 0.488,-0.635 0.917,-0.635c0.428,0 0.709,0.207 0.857,0.621Z" style="fill:#023252;fill-rule:nonzero;"/><path d="M132.921,78.936c0.104,-0.473 0.207,-0.976 0.311,-1.523c0.118,-0.547 0.221,-1.094 0.31,-1.641c0.103,-0.546 0.177,-1.034 0.251,-1.492c0.059,0.458 0.119,0.946 0.207,1.492c0.074,0.547 0.163,1.094 0.251,1.641c0.089,0.547 0.193,1.05 0.281,1.523c0.089,0.487 0.178,0.872 0.266,1.182l1.242,0c0.296,-1.02 0.591,-2.188 0.857,-3.503c0.266,-1.316 0.518,-2.735 0.739,-4.257l-1.212,0c-0.044,0.429 -0.103,0.916 -0.177,1.478c-0.074,0.577 -0.163,1.153 -0.251,1.744c-0.104,0.592 -0.192,1.168 -0.296,1.73c-0.089,0.561 -0.192,1.034 -0.266,1.433c-0.089,-0.399 -0.177,-0.872 -0.266,-1.448c-0.104,-0.577 -0.207,-1.168 -0.296,-1.774c-0.088,-0.606 -0.177,-1.182 -0.266,-1.744c-0.088,-0.562 -0.148,-1.035 -0.177,-1.419l-1.197,0c-0.06,0.384 -0.148,0.857 -0.237,1.419c-0.103,0.576 -0.207,1.153 -0.325,1.759c-0.118,0.606 -0.222,1.182 -0.34,1.759c-0.118,0.576 -0.207,1.049 -0.296,1.448c-0.103,-0.399 -0.192,-0.872 -0.295,-1.433c-0.089,-0.547 -0.192,-1.124 -0.281,-1.73c-0.104,-0.591 -0.192,-1.167 -0.266,-1.744c-0.074,-0.562 -0.133,-1.049 -0.178,-1.478l-1.256,0c0.222,1.522 0.473,2.941 0.754,4.257c0.266,1.315 0.562,2.483 0.872,3.503l1.271,0c0.074,-0.31 0.163,-0.695 0.266,-1.182Z" style="fill:#023252;fill-rule:nonzero;"/><path d="M140.356,72.358l-1.271,0l0,7.76l1.271,0l0,-7.76Zm-0.044,-1.611c0.162,-0.148 0.236,-0.355 0.236,-0.606c0,-0.251 -0.074,-0.458 -0.236,-0.621c-0.163,-0.148 -0.37,-0.222 -0.591,-0.222c-0.222,0 -0.414,0.074 -0.577,0.222c-0.162,0.163 -0.251,0.37 -0.251,0.621c0,0.251 0.089,0.458 0.251,0.606c0.163,0.162 0.355,0.236 0.577,0.236c0.221,0 0.428,-0.074 0.591,-0.236Z" style="fill:#023252;fill-rule:nonzero;"/><path d="M143.844,70.052l-1.271,0.222l0,7.361c0,0.946 0.177,1.626 0.547,2.025c0.355,0.414 0.902,0.621 1.626,0.621c0.458,0 0.887,-0.119 1.286,-0.355l-0.251,-1.02c-0.104,0.074 -0.237,0.133 -0.385,0.177c-0.162,0.045 -0.325,0.074 -0.488,0.074c-0.325,0 -0.576,-0.103 -0.768,-0.325c-0.192,-0.207 -0.296,-0.576 -0.296,-1.108l0,-4.272l1.951,0l0,-1.094l-1.951,0l0,-2.306Z" style="fill:#023252;fill-rule:nonzero;"/><path d="M148.678,80.118l0,-6.651c0.354,-0.104 0.679,-0.148 0.96,-0.148c0.547,0 0.917,0.177 1.109,0.532c0.192,0.355 0.296,0.916 0.296,1.685l0,4.582l1.271,0l0,-4.686c0,-0.62 -0.059,-1.138 -0.178,-1.566c-0.133,-0.414 -0.295,-0.739 -0.502,-0.991c-0.222,-0.251 -0.473,-0.428 -0.754,-0.532c-0.281,-0.103 -0.591,-0.148 -0.916,-0.148c-0.222,0 -0.444,0.015 -0.666,0.06c-0.221,0.044 -0.428,0.088 -0.62,0.147l0,-3.754l-1.272,0.222l0,11.248l1.272,0Z" style="fill:#023252;fill-rule:nonzero;"/><path d="M160.636,80.177c0.251,-0.088 0.458,-0.192 0.62,-0.295l-0.281,-0.991c-0.162,0.089 -0.325,0.163 -0.487,0.207c-0.178,0.059 -0.37,0.089 -0.592,0.089c-0.31,0 -0.576,-0.074 -0.768,-0.222c-0.207,-0.148 -0.37,-0.355 -0.488,-0.606c-0.133,-0.251 -0.222,-0.562 -0.266,-0.931c-0.044,-0.355 -0.074,-0.739 -0.074,-1.168c0,-1.02 0.133,-1.759 0.384,-2.246c0.252,-0.488 0.636,-0.725 1.168,-0.725c0.37,0 0.71,0.104 1.02,0.296l0.325,-1.05c-0.192,-0.103 -0.414,-0.192 -0.635,-0.266c-0.222,-0.074 -0.488,-0.103 -0.769,-0.103c-0.946,0 -1.655,0.355 -2.114,1.079c-0.473,0.724 -0.709,1.729 -0.709,3.015c0,0.577 0.044,1.124 0.148,1.611c0.088,0.488 0.251,0.917 0.473,1.272c0.221,0.369 0.502,0.65 0.857,0.857c0.355,0.207 0.798,0.31 1.33,0.31c0.311,0 0.591,-0.044 0.858,-0.133Z" style="fill:#023252;fill-rule:nonzero;"/><path d="M167.376,74.59c-0.104,-0.503 -0.266,-0.931 -0.488,-1.301c-0.222,-0.355 -0.502,-0.635 -0.842,-0.828c-0.34,-0.192 -0.754,-0.295 -1.212,-0.295c-0.459,0 -0.873,0.103 -1.212,0.295c-0.34,0.193 -0.621,0.473 -0.843,0.828c-0.222,0.37 -0.399,0.798 -0.503,1.301c-0.103,0.503 -0.162,1.049 -0.162,1.655c0,0.606 0.059,1.168 0.162,1.656c0.104,0.502 0.281,0.931 0.503,1.286c0.222,0.355 0.503,0.635 0.843,0.828c0.339,0.192 0.753,0.295 1.212,0.295c0.458,0 0.872,-0.103 1.212,-0.295c0.34,-0.193 0.62,-0.473 0.842,-0.828c0.222,-0.355 0.384,-0.784 0.488,-1.286c0.103,-0.488 0.163,-1.05 0.163,-1.656c0,-0.606 -0.06,-1.152 -0.163,-1.655Zm-1.242,2.838c-0.044,0.369 -0.133,0.68 -0.236,0.931c-0.104,0.251 -0.251,0.458 -0.429,0.591c-0.177,0.148 -0.384,0.222 -0.635,0.222c-0.252,0 -0.473,-0.074 -0.636,-0.222c-0.177,-0.133 -0.325,-0.34 -0.429,-0.591c-0.118,-0.251 -0.207,-0.562 -0.251,-0.931c-0.044,-0.355 -0.074,-0.754 -0.074,-1.183c0,-0.428 0.03,-0.827 0.074,-1.197c0.044,-0.355 0.133,-0.665 0.251,-0.931c0.104,-0.251 0.252,-0.458 0.429,-0.606c0.163,-0.133 0.384,-0.207 0.636,-0.207c0.251,0 0.458,0.074 0.635,0.207c0.178,0.148 0.325,0.355 0.429,0.606c0.103,0.266 0.192,0.576 0.236,0.931c0.045,0.37 0.074,0.769 0.074,1.197c0,0.429 -0.029,0.828 -0.074,1.183Z" style="fill:#023252;fill-rule:nonzero;"/><path d="M169.401,80.118l1.271,0l0,-6.651c0.354,-0.104 0.68,-0.148 0.96,-0.148c0.547,0 0.917,0.177 1.109,0.532c0.192,0.355 0.296,0.916 0.296,1.685l0,4.582l1.271,0l0,-4.686c0,-0.62 -0.059,-1.138 -0.178,-1.566c-0.133,-0.414 -0.295,-0.739 -0.517,-0.991c-0.222,-0.251 -0.502,-0.428 -0.813,-0.532c-0.31,-0.103 -0.665,-0.148 -1.049,-0.148c-0.355,0 -0.739,0.03 -1.168,0.104c-0.429,0.074 -0.813,0.177 -1.182,0.281l0,7.538Z" style="fill:#023252;fill-rule:nonzero;"/><path d="M177.087,69.328c-0.37,0.458 -0.562,1.108 -0.562,1.951l0,8.839l1.271,0l0,-6.666l1.996,0l0,-1.094l-1.996,0l0,-1.079c0,-0.576 0.104,-0.976 0.296,-1.212c0.192,-0.222 0.458,-0.34 0.813,-0.34c0.251,0 0.502,0.044 0.754,0.133l0.236,-1.005c-0.133,-0.059 -0.295,-0.104 -0.488,-0.148c-0.192,-0.044 -0.399,-0.059 -0.62,-0.059c-0.754,0 -1.331,0.222 -1.7,0.68Zm5.084,3.03l-1.271,0l0,7.76l1.271,0l0,-7.76Zm-0.044,-1.611c0.163,-0.148 0.237,-0.355 0.237,-0.606c0,-0.251 -0.074,-0.458 -0.237,-0.621c-0.162,-0.148 -0.369,-0.222 -0.591,-0.222c-0.222,0 -0.414,0.074 -0.577,0.222c-0.162,0.163 -0.251,0.37 -0.251,0.621c0,0.251 0.089,0.458 0.251,0.606c0.163,0.162 0.355,0.236 0.577,0.236c0.222,0 0.429,-0.074 0.591,-0.236Z" style="fill:#023252;fill-rule:nonzero;"/><path d="M187.818,79.083c-0.133,0.045 -0.266,0.06 -0.399,0.074c-0.133,0.015 -0.252,0.03 -0.355,0.03c-0.577,0 -0.99,-0.237 -1.271,-0.695c-0.281,-0.458 -0.429,-1.212 -0.429,-2.276c0,-0.547 0.03,-1.02 0.104,-1.39c0.073,-0.369 0.177,-0.679 0.31,-0.901c0.133,-0.222 0.281,-0.384 0.473,-0.488c0.192,-0.103 0.399,-0.148 0.65,-0.148c0.326,0 0.636,0.074 0.917,0.237l0,5.557Zm0,-6.666c-0.163,-0.074 -0.311,-0.148 -0.473,-0.192c-0.163,-0.044 -0.37,-0.059 -0.591,-0.059c-0.473,0 -0.887,0.089 -1.227,0.281c-0.34,0.192 -0.621,0.473 -0.843,0.813c-0.222,0.354 -0.384,0.783 -0.488,1.271c-0.103,0.502 -0.162,1.064 -0.162,1.685c0,1.375 0.236,2.394 0.724,3.074c0.473,0.68 1.242,1.02 2.306,1.02c0.369,0 0.724,-0.044 1.079,-0.118c0.355,-0.074 0.665,-0.163 0.946,-0.281l0,-11.263l-1.271,0.222l0,3.547Z" style="fill:#023252;fill-rule:nonzero;"/><path d="M195.933,76.615c0.014,-0.118 0.014,-0.237 0.014,-0.355l0,-0.325c0,-1.197 -0.177,-2.114 -0.546,-2.779c-0.37,-0.665 -0.991,-0.99 -1.863,-0.99c-0.783,0 -1.404,0.325 -1.877,0.99c-0.473,0.665 -0.71,1.7 -0.71,3.134c0,0.591 0.045,1.138 0.148,1.626c0.104,0.487 0.266,0.916 0.503,1.271c0.221,0.355 0.532,0.635 0.901,0.828c0.37,0.192 0.813,0.295 1.36,0.295c0.414,0 0.769,-0.059 1.079,-0.162c0.296,-0.104 0.503,-0.192 0.636,-0.281l-0.237,-1.02c-0.103,0.059 -0.28,0.133 -0.517,0.207c-0.251,0.089 -0.517,0.133 -0.798,0.133c-0.34,0 -0.621,-0.059 -0.843,-0.192c-0.221,-0.133 -0.399,-0.311 -0.532,-0.547c-0.133,-0.222 -0.236,-0.503 -0.295,-0.813c-0.06,-0.311 -0.089,-0.65 -0.104,-1.02l3.681,0Zm-1.538,-2.749c0.148,0.428 0.222,0.99 0.222,1.714l-2.35,0c0.044,-0.709 0.163,-1.271 0.355,-1.7c0.192,-0.428 0.487,-0.635 0.916,-0.635c0.429,0 0.71,0.207 0.857,0.621Z" style="fill:#023252;fill-rule:nonzero;"/><path d="M197.824,80.118l1.272,0l0,-6.651c0.354,-0.104 0.68,-0.148 0.96,-0.148c0.547,0 0.917,0.177 1.109,0.532c0.192,0.355 0.296,0.916 0.296,1.685l0,4.582l1.271,0l0,-4.686c0,-0.62 -0.059,-1.138 -0.178,-1.566c-0.133,-0.414 -0.295,-0.739 -0.517,-0.991c-0.222,-0.251 -0.503,-0.428 -0.813,-0.532c-0.31,-0.103 -0.665,-0.148 -1.049,-0.148c-0.355,0 -0.739,0.03 -1.168,0.104c-0.429,0.074 -0.813,0.177 -1.183,0.281l0,7.538Z" style="fill:#023252;fill-rule:nonzero;"/><path d="M208.171,80.177c0.251,-0.088 0.458,-0.192 0.621,-0.295l-0.281,-0.991c-0.162,0.089 -0.325,0.163 -0.488,0.207c-0.177,0.059 -0.369,0.089 -0.591,0.089c-0.31,0 -0.576,-0.074 -0.768,-0.222c-0.207,-0.148 -0.37,-0.355 -0.488,-0.606c-0.133,-0.251 -0.222,-0.562 -0.266,-0.931c-0.045,-0.355 -0.074,-0.739 -0.074,-1.168c0,-1.02 0.133,-1.759 0.384,-2.246c0.251,-0.488 0.636,-0.725 1.168,-0.725c0.369,0 0.709,0.104 1.02,0.296l0.325,-1.05c-0.192,-0.103 -0.414,-0.192 -0.636,-0.266c-0.221,-0.074 -0.487,-0.103 -0.768,-0.103c-0.946,0 -1.656,0.355 -2.114,1.079c-0.473,0.724 -0.709,1.729 -0.709,3.015c0,0.577 0.044,1.124 0.147,1.611c0.089,0.488 0.252,0.917 0.473,1.272c0.222,0.369 0.503,0.65 0.858,0.857c0.354,0.207 0.798,0.31 1.33,0.31c0.31,0 0.591,-0.044 0.857,-0.133Z" style="fill:#023252;fill-rule:nonzero;"/><path d="M214.645,76.615c0.015,-0.118 0.015,-0.237 0.015,-0.355l0,-0.325c0,-1.197 -0.178,-2.114 -0.547,-2.779c-0.37,-0.665 -0.99,-0.99 -1.862,-0.99c-0.784,0 -1.405,0.325 -1.878,0.99c-0.473,0.665 -0.709,1.7 -0.709,3.134c0,0.591 0.044,1.138 0.148,1.626c0.103,0.487 0.266,0.916 0.502,1.271c0.222,0.355 0.532,0.635 0.902,0.828c0.369,0.192 0.813,0.295 1.36,0.295c0.414,0 0.768,-0.059 1.079,-0.162c0.295,-0.104 0.502,-0.192 0.635,-0.281l-0.236,-1.02c-0.104,0.059 -0.281,0.133 -0.518,0.207c-0.251,0.089 -0.517,0.133 -0.798,0.133c-0.34,0 -0.62,-0.059 -0.842,-0.192c-0.222,-0.133 -0.399,-0.311 -0.532,-0.547c-0.133,-0.222 -0.237,-0.503 -0.296,-0.813c-0.059,-0.311 -0.089,-0.65 -0.103,-1.02l3.68,0Zm-1.537,-2.749c0.148,0.428 0.222,0.99 0.222,1.714l-2.351,0c0.045,-0.709 0.163,-1.271 0.355,-1.7c0.192,-0.428 0.488,-0.635 0.917,-0.635c0.428,0 0.709,0.207 0.857,0.621Z" style="fill:#023252;fill-rule:nonzero;"/></g></svg>